<svg width="43" height="38" viewBox="0 0 43 38" fill="none" xmlns="http://www.w3.org/2000/svg">
<path d="M13.36 22.2666C16.435 22.2666 19.2183 21.0197 21.2335 19.0046C23.2464 16.9917 24.4933 14.2083 24.4933 11.1333C24.4933 8.05829 23.2464 5.27496 21.2335 3.26206C19.2183 1.24693 16.435 0 13.36 0C10.285 0 7.50163 1.24693 5.4865 3.26206C3.47359 5.27496 2.22666 8.05829 2.22666 11.1333C2.22666 14.2083 3.47359 16.9917 5.4865 19.0046C7.50163 21.0197 10.285 22.2666 13.36 22.2666ZM13.36 37.8533C21.1934 37.8533 26.7199 35.6266 26.7199 33.3999C26.7199 28.9466 21.4784 24.4933 13.36 24.4933C5.00999 24.4933 0 28.9466 0 33.3999C0 35.6266 5.00999 37.8533 13.36 37.8533ZM40.0799 17.8133H35.6266V13.36C35.6266 12.1286 34.6313 11.1333 33.3999 11.1333C32.1686 11.1333 31.1733 12.1286 31.1733 13.36V17.8133H26.7199C25.4886 17.8133 24.4933 18.8086 24.4933 20.04C24.4933 21.2713 25.4886 22.2666 26.7199 22.2666H31.1733V26.7199C31.1733 27.9513 32.1686 28.9466 33.3999 28.9466C34.6313 28.9466 35.6266 27.9513 35.6266 26.7199V22.2666H40.0799C41.3113 22.2666 42.3066 21.2713 42.3066 20.04C42.3066 18.8086 41.3113 17.8133 40.0799 17.8133Z" fill="white"/>
</svg>
